<?xml version="1.0" encoding="UTF-8"?>
<svg id="Capa_2" data-name="Capa 2" xmlns="http://www.w3.org/2000/svg" xmlns:xlink="http://www.w3.org/1999/xlink" viewBox="0 0 29.24 29.24">
  <defs>
    <style>
      .cls-1 {
        fill: url(#Degradado_sin_nombre_6);
      }

      .cls-2 {
        fill: #fff;
      }

      .cls-3 {
        isolation: isolate;
        opacity: .1;
      }
    </style>
    <linearGradient id="Degradado_sin_nombre_6" data-name="Degradado sin nombre 6" x1="24.96" y1="4.28" x2="4.28" y2="24.96" gradientUnits="userSpaceOnUse">
      <stop offset="0" stop-color="#fefb01"/>
      <stop offset="1" stop-color="#fcbb45"/>
    </linearGradient>
  </defs>
  <g id="ELEMENTS">
    <g>
      <circle class="cls-1" cx="14.62" cy="14.62" r="14.62"/>
      <g>
        <g class="cls-3">
          <path class="cls-2" d="M11.97,15.97c-2.22,0-4.02-1.8-4.02-4.02s1.8-4.02,4.02-4.02,4.02,1.8,4.02,4.02-1.8,4.02-4.02,4.02ZM11.97,8.56c-1.87,0-3.39,1.52-3.39,3.39s1.52,3.39,3.39,3.39,3.39-1.52,3.39-3.39-1.52-3.39-3.39-3.39Z"/>
        </g>
        <path class="cls-2" d="M18.86,23.07c-.46,0-.88-.3-1.01-.76-.48-1.61-1.52-2.42-5.87-2.42s-5.39.82-5.87,2.42c-.17.56-.76.88-1.32.71-.56-.17-.88-.76-.71-1.32.98-3.27,3.75-3.93,7.9-3.93s6.92.66,7.9,3.93c.17.56-.15,1.15-.71,1.32-.1.03-.2.04-.3.04Z"/>
        <path class="cls-2" d="M11.97,16.72c-2.63,0-4.77-2.14-4.77-4.77s2.14-4.77,4.77-4.77,4.77,2.14,4.77,4.77-2.14,4.77-4.77,4.77ZM11.97,9.31c-1.46,0-2.65,1.19-2.65,2.65s1.19,2.65,2.65,2.65,2.65-1.19,2.65-2.65-1.19-2.65-2.65-2.65Z"/>
        <path class="cls-2" d="M24.15,9.31h-6.35c-.58,0-1.06-.47-1.06-1.06s.47-1.06,1.06-1.06h6.35c.58,0,1.06.47,1.06,1.06s-.47,1.06-1.06,1.06Z"/>
        <path class="cls-2" d="M20.98,12.49c-.58,0-1.06-.47-1.06-1.06v-6.35c0-.58.47-1.06,1.06-1.06s1.06.47,1.06,1.06v6.35c0,.58-.47,1.06-1.06,1.06Z"/>
      </g>
    </g>
  </g>
</svg>