<?xml version="1.0" encoding="UTF-8"?>
<svg id="Capa_2" data-name="Capa 2" xmlns="http://www.w3.org/2000/svg" xmlns:xlink="http://www.w3.org/1999/xlink" viewBox="0 0 29.24 29.24">
  <defs>
    <style>
      .cls-1 {
        fill: url(#Degradado_sin_nombre_4);
      }

      .cls-2 {
        fill: none;
        stroke: #fff;
        stroke-miterlimit: 15.62;
        stroke-width: 1.34px;
      }
    </style>
    <linearGradient id="Degradado_sin_nombre_4" data-name="Degradado sin nombre 4" x1="24.96" y1="4.28" x2="4.28" y2="24.96" gradientUnits="userSpaceOnUse">
      <stop offset="0" stop-color="#3cf"/>
      <stop offset="1" stop-color="#337fff"/>
    </linearGradient>
  </defs>
  <g id="ELEMENTS">
    <g>
      <circle class="cls-1" cx="14.62" cy="14.62" r="14.62"/>
      <g>
        <path class="cls-2" d="M23.06,11.03c-.15-.06-.31-.09-.47-.09h-.02c-.84.01-1.79.8-2.29,2-.6,1.43-.32,2.89.62,3.27.15.06.31.09.47.09.85,0,1.81-.79,2.31-2,.59-1.43.31-2.89-.62-3.27Z"/>
        <path class="cls-2" d="M17.62,16.61c-1.16-1.93-1.66-2.65-2.99-2.65s-1.84.73-3,2.65c-1,1.65-3.01,1.78-3.51,3.18-.1.26-.15.53-.15.8,0,1.14.87,2.06,1.94,2.06,1.33,0,3.14-1.06,4.72-1.06s3.38,1.06,4.71,1.06c1.07,0,1.94-.92,1.94-2.06,0-.28-.05-.55-.15-.8-.5-1.4-2.51-1.54-3.5-3.18Z"/>
        <path class="cls-2" d="M11.97,12.11c.06,0,.11,0,.17-.01.97-.14,1.58-1.49,1.36-3-.21-1.43-1.08-2.5-1.98-2.5-.06,0-.11,0-.17.01-.97.14-1.58,1.49-1.36,3,.21,1.43,1.08,2.5,1.98,2.5Z"/>
        <path class="cls-2" d="M19.26,9.61c.22-1.52-.39-2.86-1.36-3-.06,0-.11-.01-.17-.01-.91,0-1.78,1.07-1.98,2.5-.22,1.52.39,2.86,1.36,3,.06,0,.11.01.17.01.91,0,1.78-1.08,1.98-2.5Z"/>
        <path class="cls-2" d="M8.34,16.21c.94-.38,1.21-1.84.62-3.27-.5-1.2-1.46-2-2.3-2-.16,0-.32.03-.47.09-.94.38-1.21,1.84-.62,3.27.5,1.2,1.46,2,2.3,2,.16,0,.32-.03.47-.09Z"/>
      </g>
    </g>
  </g>
</svg>