<?xml version="1.0" encoding="UTF-8"?>
<svg id="Capa_2" data-name="Capa 2" xmlns="http://www.w3.org/2000/svg" xmlns:xlink="http://www.w3.org/1999/xlink" viewBox="0 0 29.24 29.24">
  <defs>
    <style>
      .cls-1 {
        fill: url(#Degradado_sin_nombre_6);
      }

      .cls-2 {
        fill: #fff;
      }
    </style>
    <linearGradient id="Degradado_sin_nombre_6" data-name="Degradado sin nombre 6" x1="24.96" y1="4.28" x2="4.28" y2="24.96" gradientUnits="userSpaceOnUse">
      <stop offset="0" stop-color="#fefb01"/>
      <stop offset="1" stop-color="#fcbb45"/>
    </linearGradient>
  </defs>
  <g id="ELEMENTS">
    <g>
      <circle class="cls-1" cx="14.62" cy="14.62" r="14.62"/>
      <path class="cls-2" d="M23.3,5.34c-3.78-.44-5.74.62-6.76,1.72-1.92,2.07-1.61,5.97-2.04,7.43-.74.69-1.25,1.57-1.64,2.48-.21-.4-.48-.77-.8-1.09-.37-3.7-.88-4.39-1.4-5-.72-.8-2.22-1.53-4.72-1.24-.28,0-.52.2-.64.44-.12.28-.08.56.08.8.44.56.8,1.2,1.08,1.84.08.16.78,2.16,1.8,2.84.44.36.95.61,1.44.72,1.64.37,2.16,2,2.4,2.84l-.44,4c-.04.44.24.84.68.88.43.05.77-.28.8-.68.38-4.49,1.28-6.67,2.52-7.75.48-.46,1.36-.8,1.92-1,.68-.28,1.41-.59,2.08-1.04,1.46-.98,2.44-3.88,2.56-4.11.44-1,1-1.96,1.64-2.84.48-.79-.25-1.27-.54-1.24ZM8.11,12.57c-.08-.16-.52-1.08-.68-1.4,2.25-.05,2.56,1.64,2.72,2.16.08.32.16.96.24,1.56-.08,0-1.55-.19-2.28-2.32ZM20.5,9.49c-1.1,2.13-.86,2.8-4.28,3.91.26-3.19,1-4.8,1.52-5.39.52-.56,1.91-1.39,4.11-1.23-.36.64-1.24,2.48-1.36,2.71Z"/>
    </g>
  </g>
</svg>