<?xml version="1.0" encoding="UTF-8"?>
<svg id="Capa_2" data-name="Capa 2" xmlns="http://www.w3.org/2000/svg" xmlns:xlink="http://www.w3.org/1999/xlink" viewBox="0 0 29.24 29.24">
  <defs>
    <style>
      .cls-1 {
        fill: none;
        stroke: #fff;
        stroke-linecap: round;
        stroke-linejoin: round;
        stroke-width: 1.1px;
      }

      .cls-2 {
        fill: url(#Degradado_sin_nombre_10);
      }
    </style>
    <linearGradient id="Degradado_sin_nombre_10" data-name="Degradado sin nombre 10" x1="24.96" y1="4.28" x2="4.28" y2="24.96" gradientUnits="userSpaceOnUse">
      <stop offset="0" stop-color="#007ab5"/>
      <stop offset="1" stop-color="#0046e5"/>
    </linearGradient>
  </defs>
  <g id="ELEMENTS">
    <g>
      <circle class="cls-2" cx="14.62" cy="14.62" r="14.62"/>
      <g>
        <path class="cls-1" d="M11.33,14.68c.81,0,1.47-.66,1.47-1.47s-.66-1.47-1.47-1.47-1.47.66-1.47,1.47.66,1.47,1.47,1.47Z"/>
        <path class="cls-1" d="M10.27,22.05c4.1-7.29,7.51-8.57,11.37-3.84"/>
        <path class="cls-1" d="M15.21,8.79h-5.36c-.78,0-1.53.31-2.08.86-.55.55-.86,1.3-.86,2.08v7.36c0,.78.31,1.53.86,2.08.55.55,1.3.86,2.08.86h8.84c.78,0,1.53-.31,2.08-.86.55-.55.86-1.3.86-2.08v-3.68"/>
        <path class="cls-1" d="M19.98,13.09v-5.89"/>
        <path class="cls-1" d="M17.62,9.55l2.36-2.36,2.36,2.36"/>
      </g>
    </g>
  </g>
</svg>