<?xml version="1.0" encoding="UTF-8"?>
<svg id="Capa_2" data-name="Capa 2" xmlns="http://www.w3.org/2000/svg" xmlns:xlink="http://www.w3.org/1999/xlink" viewBox="0 0 29.24 29.24">
  <defs>
    <style>
      .cls-1, .cls-2 {
        fill: #fff;
      }

      .cls-2 {
        fill-rule: evenodd;
      }

      .cls-3 {
        fill: url(#Degradado_sin_nombre_7);
      }
    </style>
    <linearGradient id="Degradado_sin_nombre_7" data-name="Degradado sin nombre 7" x1="24.96" y1="4.28" x2="4.28" y2="24.96" gradientUnits="userSpaceOnUse">
      <stop offset="0" stop-color="red"/>
      <stop offset="1" stop-color="#850000"/>
    </linearGradient>
  </defs>
  <g id="ELEMENTS">
    <g>
      <circle class="cls-3" cx="14.62" cy="14.62" r="14.62"/>
      <g>
        <path class="cls-2" d="M11.91,9.42c-1.37,0-2.49,1.11-2.49,2.49s1.11,2.49,2.49,2.49,2.49-1.11,2.49-2.49-1.11-2.49-2.49-2.49ZM10.78,11.91c0-.62.51-1.13,1.13-1.13s1.13.51,1.13,1.13-.51,1.13-1.13,1.13-1.13-.51-1.13-1.13Z"/>
        <path class="cls-2" d="M11.91,14.85c-1.08,0-2.09.22-2.86.6-.73.36-1.43.99-1.43,1.89v.06c0,.46,0,1.24.73,1.77.34.25.79.41,1.35.51.56.1,1.29.15,2.21.15s1.65-.05,2.21-.15c.56-.1,1.01-.26,1.35-.51.74-.53.73-1.31.73-1.77v-.06c0-.9-.71-1.52-1.43-1.89-.77-.38-1.78-.6-2.86-.6ZM8.97,17.34c0-.1.1-.38.68-.67.54-.27,1.34-.46,2.26-.46s1.71.19,2.26.46c.58.29.68.57.68.67,0,.55-.03.63-.17.73-.11.08-.34.19-.8.27-.45.08-1.09.13-1.97.13s-1.52-.05-1.97-.13c-.46-.08-.69-.19-.8-.27-.14-.1-.17-.18-.17-.73Z"/>
        <path class="cls-1" d="M20.95,15.3c.37,0,.68-.3.68-.68s-.3-.68-.68-.68h-3.62c-.37,0-.68.3-.68.68s.3.68.68.68h3.62Z"/>
        <path class="cls-1" d="M21.63,11.91c0,.37-.3.68-.68.68h-4.52c-.37,0-.68-.3-.68-.68s.3-.68.68-.68h4.52c.37,0,.68.3.68.68Z"/>
        <path class="cls-1" d="M20.95,18.01c.37,0,.68-.3.68-.68s-.3-.68-.68-.68h-2.71c-.37,0-.68.3-.68.68s.3.68.68.68h2.71Z"/>
        <path class="cls-2" d="M12.76,6.71h3.72c1.66,0,2.98,0,4.01.14,1.06.14,1.92.44,2.6,1.12.68.68.98,1.54,1.12,2.6.14,1.03.14,2.35.14,4.01v.1c0,1.66,0,2.98-.14,4.01-.14,1.06-.44,1.92-1.12,2.6-.68.68-1.54.98-2.6,1.12-1.03.14-2.35.14-4.01.14h-3.72c-1.66,0-2.98,0-4.01-.14-1.06-.14-1.92-.44-2.6-1.12-.68-.68-.98-1.54-1.12-2.6-.14-1.03-.14-2.35-.14-4.01v-.1c0-1.66,0-2.98.14-4.01.14-1.06.44-1.92,1.12-2.6.68-.68,1.54-.98,2.6-1.12,1.03-.14,2.35-.14,4.01-.14ZM8.93,8.19c-.91.12-1.43.35-1.82.73-.38.38-.61.91-.73,1.82-.12.93-.13,2.16-.13,3.88s0,2.95.13,3.88c.12.91.35,1.43.73,1.82.38.38.91.61,1.82.73.93.13,2.16.13,3.88.13h3.62c1.72,0,2.95,0,3.88-.13.91-.12,1.43-.35,1.82-.73.38-.38.61-.91.73-1.82.13-.93.13-2.16.13-3.88s0-2.95-.13-3.88c-.12-.91-.35-1.43-.73-1.82-.38-.38-.91-.61-1.82-.73-.93-.12-2.16-.13-3.88-.13h-3.62c-1.72,0-2.95,0-3.88.13Z"/>
      </g>
    </g>
  </g>
</svg>