<?xml version="1.0" encoding="UTF-8"?>
<svg id="Capa_2" data-name="Capa 2" xmlns="http://www.w3.org/2000/svg" xmlns:xlink="http://www.w3.org/1999/xlink" viewBox="0 0 29.24 29.24">
  <defs>
    <style>
      .cls-1 {
        fill: #fff;
        fill-rule: evenodd;
      }

      .cls-2 {
        fill: url(#Degradado_sin_nombre_3);
      }
    </style>
    <linearGradient id="Degradado_sin_nombre_3" data-name="Degradado sin nombre 3" x1="24.96" y1="4.28" x2="4.28" y2="24.96" gradientUnits="userSpaceOnUse">
      <stop offset="0" stop-color="#fbe18a"/>
      <stop offset=".21" stop-color="#fcbb45"/>
      <stop offset=".38" stop-color="#f75274"/>
      <stop offset=".52" stop-color="#d53692"/>
      <stop offset=".74" stop-color="#8f39ce"/>
      <stop offset="1" stop-color="#5b4fe9"/>
    </linearGradient>
  </defs>
  <g id="ELEMENTS">
    <g>
      <circle class="cls-2" cx="14.62" cy="14.62" r="14.62"/>
      <path class="cls-1" d="M19.42,21.22c1.67-1.38,2.73-3.47,2.73-5.81,0-1.16-.26-2.27-.74-3.25l2.55-1.28c.43-.21.69-.65.69-1.12s-.27-.91-.69-1.12l-8.79-4.4c-.35-.18-.77-.18-1.12,0l-8.79,4.4c-.43.21-.69.65-.69,1.12s.27.91.69,1.12l2.55,1.28c-.47.98-.74,2.09-.74,3.25,0,2.34,1.06,4.43,2.73,5.81-2.35.83-4.17,2.25-5.28,3.98.62.59,1.28,1.13,1.99,1.6,1.19-2.06,3.89-3.85,8.1-3.85s6.91,1.79,8.1,3.85c.71-.47,1.37-1.01,1.99-1.6-1.11-1.73-2.93-3.15-5.28-3.98ZM8.64,9.76l5.98-2.99,5.98,2.99-1.52.76-4.46,2.23-4.46-2.23-1.52-.76ZM14.62,20.43c-2.77,0-5.02-2.25-5.02-5.02,0-.76.17-1.48.47-2.13l3.99,2c.35.18.77.18,1.12,0l3.99-2c.3.65.47,1.37.47,2.13,0,2.77-2.25,5.02-5.02,5.02Z"/>
    </g>
  </g>
</svg>