<?xml version="1.0" encoding="UTF-8"?>
<svg id="Capa_2" data-name="Capa 2" xmlns="http://www.w3.org/2000/svg" xmlns:xlink="http://www.w3.org/1999/xlink" viewBox="0 0 29.24 29.24">
  <defs>
    <style>
      .cls-1 {
        fill: url(#Degradado_sin_nombre_5);
      }

      .cls-2 {
        fill: #fff;
        fill-rule: evenodd;
      }
    </style>
    <linearGradient id="Degradado_sin_nombre_5" data-name="Degradado sin nombre 5" x1="24.96" y1="4.28" x2="4.28" y2="24.96" gradientTransform="translate(6.71 -4.48) rotate(22.5)" gradientUnits="userSpaceOnUse">
      <stop offset="0" stop-color="#fc4d3f"/>
      <stop offset="1" stop-color="#cd083f"/>
    </linearGradient>
  </defs>
  <g id="ELEMENTS">
    <g>
      <circle class="cls-1" cx="14.62" cy="14.62" r="14.62" transform="translate(-4.48 6.71) rotate(-22.5)"/>
      <path class="cls-2" d="M7.66,12.13c0-3.39,2.99-6.47,6.96-6.47s6.96,3.08,6.96,6.47c0,2.13-1.31,4.52-3.02,6.73-1.36,1.75-2.87,3.25-3.94,4.31-1.07-1.06-2.58-2.56-3.94-4.31-1.72-2.21-3.02-4.59-3.02-6.73ZM14.62,3.68c-4.98,0-8.95,3.89-8.95,8.46,0,2.84,1.68,5.68,3.44,7.95,1.53,1.96,3.24,3.65,4.31,4.7.18.18.35.34.49.49.19.19.44.29.7.29s.52-.1.7-.29c.14-.14.31-.31.49-.49h0c1.07-1.05,2.79-2.74,4.31-4.7,1.76-2.27,3.44-5.11,3.44-7.95,0-4.57-3.97-8.46-8.95-8.46ZM14.62,15.12c1.37,0,2.49-1.11,2.49-2.49s-1.11-2.49-2.49-2.49-2.49,1.11-2.49,2.49,1.11,2.49,2.49,2.49Z"/>
    </g>
  </g>
</svg>