<?xml version="1.0" encoding="UTF-8"?>
<svg id="Capa_2" data-name="Capa 2" xmlns="http://www.w3.org/2000/svg" xmlns:xlink="http://www.w3.org/1999/xlink" viewBox="0 0 29.24 29.24">
  <defs>
    <style>
      .cls-1 {
        fill: #fff;
      }

      .cls-2 {
        fill: url(#Degradado_sin_nombre_9);
      }
    </style>
    <linearGradient id="Degradado_sin_nombre_9" data-name="Degradado sin nombre 9" x1="24.96" y1="4.28" x2="4.28" y2="24.96" gradientUnits="userSpaceOnUse">
      <stop offset="0" stop-color="#006ef5"/>
      <stop offset=".78" stop-color="#2130ae"/>
      <stop offset="1" stop-color="#2b1e99"/>
    </linearGradient>
  </defs>
  <g id="ELEMENTS">
    <g>
      <circle class="cls-2" cx="14.62" cy="14.62" r="14.62"/>
      <g>
        <path class="cls-1" d="M14.62,19.9c-4.15,0-7.77,2.27-9.71,5.63.7.62,1.46,1.18,2.28,1.66,1.41-2.67,4.21-4.49,7.43-4.49s6.02,1.82,7.43,4.49c.81-.48,1.57-1.04,2.28-1.66-1.94-3.36-5.56-5.63-9.71-5.63Z"/>
        <path class="cls-1" d="M7.62,11.5c0,3.86,3.14,7.01,7.01,7.01s7.01-3.14,7.01-7.01-3.14-7.01-7.01-7.01-7.01,3.14-7.01,7.01ZM18.82,11.5c0,2.32-1.89,4.2-4.2,4.2s-4.2-1.89-4.2-4.2,1.89-4.2,4.2-4.2,4.2,1.89,4.2,4.2Z"/>
      </g>
    </g>
  </g>
</svg>